<?xml version="1.0" encoding="UTF-8"?>
<svg version="1.1" xmlns="http://www.w3.org/2000/svg" width="89" height="105">
<path d="M0 0 C7.46316831 7.99816245 10.37835872 16.94788192 10.125 27.8125 C9.2832963 37.04170725 4.53592593 45.25587121 -1.875 51.8125 C-11.20581698 59.24799478 -20.95924089 62.0539397 -32.875 61.8125 C-36.72203572 61.20560127 -40.2329929 60.17896734 -43.875 58.8125 C-44.58269531 58.55597656 -45.29039063 58.29945312 -46.01953125 58.03515625 C-55.65400898 53.91152377 -61.40658418 45.79617323 -65.78125 36.609375 C-69.61300431 26.81103184 -67.68003753 18.34872761 -63.875 8.8125 C-62.18845326 5.78370156 -60.25760948 3.32255139 -57.875 0.8125 C-57.30007812 0.19761719 -56.72515625 -0.41726562 -56.1328125 -1.05078125 C-49.86158333 -7.12684769 -40.94850948 -11.6627291 -32.12109375 -12.25 C-19.2546359 -11.89197683 -9.53458264 -8.76490464 0 0 Z M-51.44140625 6.90625 C-56.30654404 13.37542504 -58.16938932 19.67150313 -57.875 27.8125 C-56.44232329 35.97405994 -53.42489764 42.21571321 -46.5625 47.0625 C-38.68869085 51.9373705 -31.00897988 52.71037909 -21.875 51.8125 C-18.57347542 50.89264752 -15.81366589 49.55841326 -12.875 47.8125 C-12.23820312 47.47347656 -11.60140625 47.13445312 -10.9453125 46.78515625 C-5.46875746 43.48277006 -2.92592172 38.76186796 -0.875 32.8125 C0.82442852 25.44830975 0.45014921 18.65572517 -2.875 11.8125 C-7.87323168 4.52288755 -14.07330622 -0.48394637 -22.875 -2.1875 C-33.71276157 -3.21227402 -43.95481251 -1.56778416 -51.44140625 6.90625 Z " fill="#18DEE1" transform="translate(73.875,25.1875)"/>
<path d="M0 0 C4.6447121 -0.0988803 9.28881173 -0.1714715 13.93432617 -0.21972656 C15.51451285 -0.23984186 17.09462509 -0.26713804 18.67456055 -0.30175781 C20.94598748 -0.35028343 23.21643058 -0.37296809 25.48828125 -0.390625 C26.54780754 -0.42159271 26.54780754 -0.42159271 27.6287384 -0.45318604 C30.89978513 -0.45468236 32.56062813 -0.4119212 34.99682617 1.87207031 C36 4 36 4 35.5625 6.4375 C33.50566296 9.81071275 31.13966515 11.61112434 28 14 C27.071875 12.7625 27.071875 12.7625 26.125 11.5 C24.2085838 9.5392736 23.23033603 9.03351639 20.4765625 8.6328125 C17.94644985 8.62556289 15.50944357 8.67470176 13 9 C12.67 9.33 12.34 9.66 12 10 C9.07800817 10.40771979 6.90926899 10.49465875 4.26953125 9.05859375 C2.625 7.8125 2.625 7.8125 0 5 C-0.1640625 2.32421875 -0.1640625 2.32421875 0 0 Z " fill="#1AE5E8" transform="translate(27,33)"/>
<path d="M0 0 C1.9375 0.9375 1.9375 0.9375 3.23828125 2.48046875 C5.55879734 4.47024461 7.05056738 4.27531145 10.0625 4.1875 C10.95195313 4.17203125 11.84140625 4.1565625 12.7578125 4.140625 C14.91419378 4.17362131 14.91419378 4.17362131 15.9375 2.9375 C18.85949183 2.52978021 21.02823101 2.44284125 23.66796875 3.87890625 C25.3125 5.125 25.3125 5.125 27.9375 7.9375 C28.1015625 10.61328125 28.1015625 10.61328125 27.9375 12.9375 C23.2927879 13.0363803 18.64868827 13.1089715 14.00317383 13.15722656 C12.42298715 13.17734186 10.84287491 13.20463804 9.26293945 13.23925781 C6.99151252 13.28778343 4.72106942 13.31046809 2.44921875 13.328125 C1.74286789 13.34877014 1.03651703 13.36941528 0.3087616 13.39068604 C-2.96163913 13.39218207 -4.62524101 13.34499066 -7.06713867 11.06933594 C-8.0625 8.9375 -8.0625 8.9375 -7.5 6.4375 C-3.73338608 -0.11313291 -3.73338608 -0.11313291 0 0 Z " fill="#16D8DB" transform="translate(35.0625,54.0625)"/>
<path d="M0 0 C2.4375 1.625 2.4375 1.625 4 4 C4.1875 7.0625 4.1875 7.0625 3 10 C-0.25 12.0625 -0.25 12.0625 -4 13 C-6.875 12.0625 -6.875 12.0625 -9 10 C-10.0625 7.0625 -10.0625 7.0625 -10 4 C-7.29784114 -0.10728147 -4.77193696 -0.79532283 0 0 Z " fill="#18DEE1" transform="translate(48,44)"/>
</svg>
